solid OpenSCAD_Model
  facet normal 0.987688 0.156435 0
    outer loop
      vertex 6 0 1
      vertex 5.70634 1.8541 -1
      vertex 5.70634 1.8541 1
    endloop
  endfacet
  facet normal 0.987688 0.156435 0
    outer loop
      vertex 5.70634 1.8541 -1
      vertex 6 0 1
      vertex 6 0 -1
    endloop
  endfacet
  facet normal 0.891007 0.45399 0
    outer loop
      vertex 5.70634 1.8541 1
      vertex 4.8541 3.52671 -1
      vertex 4.8541 3.52671 1
    endloop
  endfacet
  facet normal 0.891007 0.45399 0
    outer loop
      vertex 4.8541 3.52671 -1
      vertex 5.70634 1.8541 1
      vertex 5.70634 1.8541 -1
    endloop
  endfacet
  facet normal 0.707107 0.707107 0
    outer loop
      vertex 4.8541 3.52671 1
      vertex 3.52671 4.8541 -1
      vertex 3.52671 4.8541 1
    endloop
  endfacet
  facet normal 0.707107 0.707107 0
    outer loop
      vertex 3.52671 4.8541 -1
      vertex 4.8541 3.52671 1
      vertex 4.8541 3.52671 -1
    endloop
  endfacet
  facet normal 0.45399 0.891007 -0
    outer loop
      vertex 3.52671 4.8541 -1
      vertex 1.8541 5.70634 1
      vertex 3.52671 4.8541 1
    endloop
  endfacet
  facet normal 0.45399 0.891007 0
    outer loop
      vertex 1.8541 5.70634 1
      vertex 3.52671 4.8541 -1
      vertex 1.8541 5.70634 -1
    endloop
  endfacet
  facet normal 0.156435 0.987688 -0
    outer loop
      vertex 1.8541 5.70634 -1
      vertex 3.67382e-016 6 1
      vertex 1.8541 5.70634 1
    endloop
  endfacet
  facet normal 0.156435 0.987688 0
    outer loop
      vertex 3.67382e-016 6 1
      vertex 1.8541 5.70634 -1
      vertex 3.67382e-016 6 -1
    endloop
  endfacet
  facet normal -0.156435 0.987688 0
    outer loop
      vertex 3.67382e-016 6 -1
      vertex -1.8541 5.70634 1
      vertex 3.67382e-016 6 1
    endloop
  endfacet
  facet normal -0.156435 0.987688 0
    outer loop
      vertex -1.8541 5.70634 1
      vertex 3.67382e-016 6 -1
      vertex -1.8541 5.70634 -1
    endloop
  endfacet
  facet normal -0.45399 0.891007 0
    outer loop
      vertex -1.8541 5.70634 -1
      vertex -3.52671 4.8541 1
      vertex -1.8541 5.70634 1
    endloop
  endfacet
  facet normal -0.45399 0.891007 0
    outer loop
      vertex -3.52671 4.8541 1
      vertex -1.8541 5.70634 -1
      vertex -3.52671 4.8541 -1
    endloop
  endfacet
  facet normal -0.707107 0.707107 0
    outer loop
      vertex -4.8541 3.52671 -1
      vertex -3.52671 4.8541 1
      vertex -3.52671 4.8541 -1
    endloop
  endfacet
  facet normal -0.707107 0.707107 0
    outer loop
      vertex -3.52671 4.8541 1
      vertex -4.8541 3.52671 -1
      vertex -4.8541 3.52671 1
    endloop
  endfacet
  facet normal -0.891007 0.45399 0
    outer loop
      vertex -5.70634 1.8541 -1
      vertex -4.8541 3.52671 1
      vertex -4.8541 3.52671 -1
    endloop
  endfacet
  facet normal -0.891007 0.45399 0
    outer loop
      vertex -4.8541 3.52671 1
      vertex -5.70634 1.8541 -1
      vertex -5.70634 1.8541 1
    endloop
  endfacet
  facet normal -0.987688 0.156435 0
    outer loop
      vertex -6 7.34764e-016 -1
      vertex -5.70634 1.8541 1
      vertex -5.70634 1.8541 -1
    endloop
  endfacet
  facet normal -0.987688 0.156435 0
    outer loop
      vertex -5.70634 1.8541 1
      vertex -6 7.34764e-016 -1
      vertex -6 7.34764e-016 1
    endloop
  endfacet
  facet normal -0.987688 -0.156435 0
    outer loop
      vertex -5.70634 -1.8541 -1
      vertex -6 7.34764e-016 1
      vertex -6 7.34764e-016 -1
    endloop
  endfacet
  facet normal -0.987688 -0.156435 0
    outer loop
      vertex -6 7.34764e-016 1
      vertex -5.70634 -1.8541 -1
      vertex -5.70634 -1.8541 1
    endloop
  endfacet
  facet normal -0.891007 -0.45399 0
    outer loop
      vertex -4.8541 -3.52671 -1
      vertex -5.70634 -1.8541 1
      vertex -5.70634 -1.8541 -1
    endloop
  endfacet
  facet normal -0.891007 -0.45399 0
    outer loop
      vertex -5.70634 -1.8541 1
      vertex -4.8541 -3.52671 -1
      vertex -4.8541 -3.52671 1
    endloop
  endfacet
  facet normal -0.707107 -0.707107 0
    outer loop
      vertex -3.52671 -4.8541 -1
      vertex -4.8541 -3.52671 1
      vertex -4.8541 -3.52671 -1
    endloop
  endfacet
  facet normal -0.707107 -0.707107 0
    outer loop
      vertex -4.8541 -3.52671 1
      vertex -3.52671 -4.8541 -1
      vertex -3.52671 -4.8541 1
    endloop
  endfacet
  facet normal -0.45399 -0.891007 0
    outer loop
      vertex -3.52671 -4.8541 -1
      vertex -1.8541 -5.70634 1
      vertex -3.52671 -4.8541 1
    endloop
  endfacet
  facet normal -0.45399 -0.891007 -0
    outer loop
      vertex -1.8541 -5.70634 1
      vertex -3.52671 -4.8541 -1
      vertex -1.8541 -5.70634 -1
    endloop
  endfacet
  facet normal -0.156435 -0.987688 0
    outer loop
      vertex -1.8541 -5.70634 -1
      vertex -1.10215e-015 -6 1
      vertex -1.8541 -5.70634 1
    endloop
  endfacet
  facet normal -0.156435 -0.987688 -0
    outer loop
      vertex -1.10215e-015 -6 1
      vertex -1.8541 -5.70634 -1
      vertex -1.10215e-015 -6 -1
    endloop
  endfacet
  facet normal 0.156435 -0.987688 0
    outer loop
      vertex -1.10215e-015 -6 -1
      vertex 1.8541 -5.70634 1
      vertex -1.10215e-015 -6 1
    endloop
  endfacet
  facet normal 0.156435 -0.987688 0
    outer loop
      vertex 1.8541 -5.70634 1
      vertex -1.10215e-015 -6 -1
      vertex 1.8541 -5.70634 -1
    endloop
  endfacet
  facet normal 0.45399 -0.891007 0
    outer loop
      vertex 1.8541 -5.70634 -1
      vertex 3.52671 -4.8541 1
      vertex 1.8541 -5.70634 1
    endloop
  endfacet
  facet normal 0.45399 -0.891007 0
    outer loop
      vertex 3.52671 -4.8541 1
      vertex 1.8541 -5.70634 -1
      vertex 3.52671 -4.8541 -1
    endloop
  endfacet
  facet normal 0.707107 -0.707107 0
    outer loop
      vertex 3.52671 -4.8541 1
      vertex 4.8541 -3.52671 -1
      vertex 4.8541 -3.52671 1
    endloop
  endfacet
  facet normal 0.707107 -0.707107 0
    outer loop
      vertex 4.8541 -3.52671 -1
      vertex 3.52671 -4.8541 1
      vertex 3.52671 -4.8541 -1
    endloop
  endfacet
  facet normal 0.891007 -0.45399 0
    outer loop
      vertex 4.8541 -3.52671 1
      vertex 5.70634 -1.8541 -1
      vertex 5.70634 -1.8541 1
    endloop
  endfacet
  facet normal 0.891007 -0.45399 0
    outer loop
      vertex 5.70634 -1.8541 -1
      vertex 4.8541 -3.52671 1
      vertex 4.8541 -3.52671 -1
    endloop
  endfacet
  facet normal 0.987688 -0.156435 0
    outer loop
      vertex 5.70634 -1.8541 1
      vertex 6 0 -1
      vertex 6 0 1
    endloop
  endfacet
  facet normal 0.987688 -0.156435 0
    outer loop
      vertex 6 0 -1
      vertex 5.70634 -1.8541 1
      vertex 5.70634 -1.8541 -1
    endloop
  endfacet
  facet normal 0 0 -1
    outer loop
      vertex 5.70634 -1.8541 -1
      vertex 5.70634 1.8541 -1
      vertex 6 0 -1
    endloop
  endfacet
  facet normal 0 0 -1
    outer loop
      vertex 4.8541 -3.52671 -1
      vertex 5.70634 1.8541 -1
      vertex 5.70634 -1.8541 -1
    endloop
  endfacet
  facet normal 0 0 -1
    outer loop
      vertex 4.8541 -3.52671 -1
      vertex 4.8541 3.52671 -1
      vertex 5.70634 1.8541 -1
    endloop
  endfacet
  facet normal 0 0 -1
    outer loop
      vertex 3.52671 -4.8541 -1
      vertex 4.8541 3.52671 -1
      vertex 4.8541 -3.52671 -1
    endloop
  endfacet
  facet normal 0 0 -1
    outer loop
      vertex 3.52671 -4.8541 -1
      vertex 3.52671 4.8541 -1
      vertex 4.8541 3.52671 -1
    endloop
  endfacet
  facet normal 0 0 -1
    outer loop
      vertex 1.8541 -5.70634 -1
      vertex 3.52671 4.8541 -1
      vertex 3.52671 -4.8541 -1
    endloop
  endfacet
  facet normal 0 0 -1
    outer loop
      vertex 1.8541 -5.70634 -1
      vertex 1.8541 5.70634 -1
      vertex 3.52671 4.8541 -1
    endloop
  endfacet
  facet normal 0 0 -1
    outer loop
      vertex 1.8541 -5.70634 -1
      vertex 3.67382e-016 6 -1
      vertex 1.8541 5.70634 -1
    endloop
  endfacet
  facet normal 0 0 -1
    outer loop
      vertex -1.10215e-015 -6 -1
      vertex 3.67382e-016 6 -1
      vertex 1.8541 -5.70634 -1
    endloop
  endfacet
  facet normal 0 0 -1
    outer loop
      vertex -1.8541 -5.70634 -1
      vertex 3.67382e-016 6 -1
      vertex -1.10215e-015 -6 -1
    endloop
  endfacet
  facet normal 0 0 -1
    outer loop
      vertex -1.8541 -5.70634 -1
      vertex -1.8541 5.70634 -1
      vertex 3.67382e-016 6 -1
    endloop
  endfacet
  facet normal 0 0 -1
    outer loop
      vertex -3.52671 -4.8541 -1
      vertex -1.8541 5.70634 -1
      vertex -1.8541 -5.70634 -1
    endloop
  endfacet
  facet normal 0 0 -1
    outer loop
      vertex -3.52671 -4.8541 -1
      vertex -3.52671 4.8541 -1
      vertex -1.8541 5.70634 -1
    endloop
  endfacet
  facet normal 0 0 -1
    outer loop
      vertex -4.8541 -3.52671 -1
      vertex -3.52671 4.8541 -1
      vertex -3.52671 -4.8541 -1
    endloop
  endfacet
  facet normal 0 0 -1
    outer loop
      vertex -4.8541 -3.52671 -1
      vertex -4.8541 3.52671 -1
      vertex -3.52671 4.8541 -1
    endloop
  endfacet
  facet normal 0 0 -1
    outer loop
      vertex -5.70634 -1.8541 -1
      vertex -4.8541 3.52671 -1
      vertex -4.8541 -3.52671 -1
    endloop
  endfacet
  facet normal 0 0 -1
    outer loop
      vertex -5.70634 -1.8541 -1
      vertex -5.70634 1.8541 -1
      vertex -4.8541 3.52671 -1
    endloop
  endfacet
  facet normal 0 -0 -1
    outer loop
      vertex -5.70634 1.8541 -1
      vertex -5.70634 -1.8541 -1
      vertex -6 7.34764e-016 -1
    endloop
  endfacet
  facet normal 0 0 1
    outer loop
      vertex 5.70634 1.8541 1
      vertex 5.70634 -1.8541 1
      vertex 6 0 1
    endloop
  endfacet
  facet normal 0 0 1
    outer loop
      vertex 4.8541 3.52671 1
      vertex 5.70634 -1.8541 1
      vertex 5.70634 1.8541 1
    endloop
  endfacet
  facet normal 0 0 1
    outer loop
      vertex 4.8541 3.52671 1
      vertex 4.8541 -3.52671 1
      vertex 5.70634 -1.8541 1
    endloop
  endfacet
  facet normal 0 0 1
    outer loop
      vertex 3.52671 4.8541 1
      vertex 4.8541 -3.52671 1
      vertex 4.8541 3.52671 1
    endloop
  endfacet
  facet normal 0 0 1
    outer loop
      vertex 3.52671 4.8541 1
      vertex 3.52671 -4.8541 1
      vertex 4.8541 -3.52671 1
    endloop
  endfacet
  facet normal 0 0 1
    outer loop
      vertex 1.8541 5.70634 1
      vertex 3.52671 -4.8541 1
      vertex 3.52671 4.8541 1
    endloop
  endfacet
  facet normal 0 0 1
    outer loop
      vertex 1.8541 5.70634 1
      vertex 1.8541 -5.70634 1
      vertex 3.52671 -4.8541 1
    endloop
  endfacet
  facet normal 0 0 1
    outer loop
      vertex 3.67382e-016 6 1
      vertex 1.8541 -5.70634 1
      vertex 1.8541 5.70634 1
    endloop
  endfacet
  facet normal 0 0 1
    outer loop
      vertex 3.67382e-016 6 1
      vertex -1.10215e-015 -6 1
      vertex 1.8541 -5.70634 1
    endloop
  endfacet
  facet normal -0 0 1
    outer loop
      vertex -1.8541 5.70634 1
      vertex -1.10215e-015 -6 1
      vertex 3.67382e-016 6 1
    endloop
  endfacet
  facet normal 0 0 1
    outer loop
      vertex -1.8541 5.70634 1
      vertex -1.8541 -5.70634 1
      vertex -1.10215e-015 -6 1
    endloop
  endfacet
  facet normal -0 0 1
    outer loop
      vertex -3.52671 4.8541 1
      vertex -1.8541 -5.70634 1
      vertex -1.8541 5.70634 1
    endloop
  endfacet
  facet normal 0 0 1
    outer loop
      vertex -3.52671 4.8541 1
      vertex -3.52671 -4.8541 1
      vertex -1.8541 -5.70634 1
    endloop
  endfacet
  facet normal -0 0 1
    outer loop
      vertex -4.8541 3.52671 1
      vertex -3.52671 -4.8541 1
      vertex -3.52671 4.8541 1
    endloop
  endfacet
  facet normal 0 0 1
    outer loop
      vertex -4.8541 3.52671 1
      vertex -4.8541 -3.52671 1
      vertex -3.52671 -4.8541 1
    endloop
  endfacet
  facet normal -0 0 1
    outer loop
      vertex -5.70634 1.8541 1
      vertex -4.8541 -3.52671 1
      vertex -4.8541 3.52671 1
    endloop
  endfacet
  facet normal 0 0 1
    outer loop
      vertex -5.70634 1.8541 1
      vertex -5.70634 -1.8541 1
      vertex -4.8541 -3.52671 1
    endloop
  endfacet
  facet normal 0 -0 1
    outer loop
      vertex -5.70634 -1.8541 1
      vertex -5.70634 1.8541 1
      vertex -6 7.34764e-016 1
    endloop
  endfacet
endsolid OpenSCAD_Model
